# xmcd
#
# Track frame offsets:
#	182
#	50015
#	69460
#	88760
#	114167
#	124285
#	143640
#	179480
#	191482
#	213427
#	222305
#
# Disc length: 3313 seconds
#
# Revision: 1
# Processed by: cddbd v1.5.1PL0 Copyright (c) Steve Scherf et al.
# Submitted via: CDex 1.50Beta5
#
DISCID=a70cef0b
DTITLE=さだまさし - LIVE 二千一夜 Disc 3
DYEAR=1993
DGENRE=
TTITLE0=トーク6その2
TTITLE1=掌
TTITLE2=線香花火
TTITLE3=精霊流し
TTITLE4=トーク7
TTITLE5=修二会
TTITLE6=落日
TTITLE7=天までとどけ
TTITLE8=交響楽
TTITLE9=トーク8
TTITLE10=まほろば
EXTD=
EXTT0=
EXTT1=
EXTT2=
EXTT3=
EXTT4=
EXTT5=
EXTT6=
EXTT7=
EXTT8=
EXTT9=
EXTT10=
PLAYORDER=
